<mxfile host="app.diagrams.net" modified="2024-07-24T07:22:46.379Z" agent="Mozilla/5.0 (Windows NT 10.0; Win64; x64) AppleWebKit/537.36 (KHTML, like Gecko) Chrome/126.0.0.0 Safari/537.36" etag="-OhMURC1D7L5vObfWC0G" version="24.3.1" type="device">
  <diagram name="Pagina-1" id="AWWtPJxGNH1NayDu-K78">
    <mxGraphModel dx="1647" dy="877" grid="1" gridSize="10" guides="1" tooltips="1" connect="1" arrows="1" fold="1" page="1" pageScale="1" pageWidth="827" pageHeight="1169" math="0" shadow="0">
      <root>
        <mxCell id="0" />
        <mxCell id="1" parent="0" />
        <mxCell id="u_GoliLwBzAYBr_NFZ34-1" value="" style="rounded=1;whiteSpace=wrap;html=1;shadow=0;glass=1;fillColor=#43D043;strokeColor=none;fontColor=#ffffff;" vertex="1" parent="1">
          <mxGeometry x="240" y="320" width="110" height="110" as="geometry" />
        </mxCell>
      </root>
    </mxGraphModel>
  </diagram>
</mxfile>
